%TF.GenerationSoftware,KiCad,Pcbnew,8.0.6*%
%TF.CreationDate,2024-11-20T22:46:54+01:00*%
%TF.ProjectId,Serverl_fter,53657276-6572-46cf-9c66-7465722e6b69,rev?*%
%TF.SameCoordinates,Original*%
%TF.FileFunction,Drillmap*%
%TF.FilePolarity,Positive*%
%FSLAX45Y45*%
G04 Gerber Fmt 4.5, Leading zero omitted, Abs format (unit mm)*
G04 Created by KiCad (PCBNEW 8.0.6) date 2024-11-20 22:46:54*
%MOMM*%
%LPD*%
G01*
G04 APERTURE LIST*
%ADD10C,0.050000*%
%ADD11C,0.200000*%
%ADD12C,0.100000*%
%ADD13C,0.101600*%
G04 APERTURE END LIST*
D10*
X2540000Y-2032000D02*
X13462000Y-2032000D01*
X13462000Y-8382000D01*
X2540000Y-8382000D01*
X2540000Y-2032000D01*
D11*
D12*
X7212170Y-7807360D02*
X7242170Y-7837360D01*
X7242170Y-7807360D02*
X7212170Y-7837360D01*
X7720170Y-2663830D02*
X7750170Y-2693830D01*
X7750170Y-2663830D02*
X7720170Y-2693830D01*
X7974170Y-2779000D02*
X8004170Y-2809000D01*
X8004170Y-2779000D02*
X7974170Y-2809000D01*
X3606000Y-5080000D02*
G75*
G02*
X3506000Y-5080000I-50000J0D01*
G01*
X3506000Y-5080000D02*
G75*
G02*
X3606000Y-5080000I50000J0D01*
G01*
X3606000Y-5842000D02*
G75*
G02*
X3506000Y-5842000I-50000J0D01*
G01*
X3506000Y-5842000D02*
G75*
G02*
X3606000Y-5842000I50000J0D01*
G01*
X3606000Y-7620000D02*
G75*
G02*
X3506000Y-7620000I-50000J0D01*
G01*
X3506000Y-7620000D02*
G75*
G02*
X3606000Y-7620000I50000J0D01*
G01*
X3860000Y-5080000D02*
G75*
G02*
X3760000Y-5080000I-50000J0D01*
G01*
X3760000Y-5080000D02*
G75*
G02*
X3860000Y-5080000I50000J0D01*
G01*
X4114000Y-5080000D02*
G75*
G02*
X4014000Y-5080000I-50000J0D01*
G01*
X4014000Y-5080000D02*
G75*
G02*
X4114000Y-5080000I50000J0D01*
G01*
X4368000Y-5080000D02*
G75*
G02*
X4268000Y-5080000I-50000J0D01*
G01*
X4268000Y-5080000D02*
G75*
G02*
X4368000Y-5080000I50000J0D01*
G01*
X4622000Y-5080000D02*
G75*
G02*
X4522000Y-5080000I-50000J0D01*
G01*
X4522000Y-5080000D02*
G75*
G02*
X4622000Y-5080000I50000J0D01*
G01*
X5384000Y-5080000D02*
G75*
G02*
X5284000Y-5080000I-50000J0D01*
G01*
X5284000Y-5080000D02*
G75*
G02*
X5384000Y-5080000I50000J0D01*
G01*
X5638000Y-5080000D02*
G75*
G02*
X5538000Y-5080000I-50000J0D01*
G01*
X5538000Y-5080000D02*
G75*
G02*
X5638000Y-5080000I50000J0D01*
G01*
X5892000Y-5080000D02*
G75*
G02*
X5792000Y-5080000I-50000J0D01*
G01*
X5792000Y-5080000D02*
G75*
G02*
X5892000Y-5080000I50000J0D01*
G01*
X6146000Y-5080000D02*
G75*
G02*
X6046000Y-5080000I-50000J0D01*
G01*
X6046000Y-5080000D02*
G75*
G02*
X6146000Y-5080000I50000J0D01*
G01*
X6908000Y-5080000D02*
G75*
G02*
X6808000Y-5080000I-50000J0D01*
G01*
X6808000Y-5080000D02*
G75*
G02*
X6908000Y-5080000I50000J0D01*
G01*
X7162000Y-3048000D02*
G75*
G02*
X7062000Y-3048000I-50000J0D01*
G01*
X7062000Y-3048000D02*
G75*
G02*
X7162000Y-3048000I50000J0D01*
G01*
X7162000Y-4064000D02*
G75*
G02*
X7062000Y-4064000I-50000J0D01*
G01*
X7062000Y-4064000D02*
G75*
G02*
X7162000Y-4064000I50000J0D01*
G01*
X7162000Y-5080000D02*
G75*
G02*
X7062000Y-5080000I-50000J0D01*
G01*
X7062000Y-5080000D02*
G75*
G02*
X7162000Y-5080000I50000J0D01*
G01*
X7416000Y-3048000D02*
G75*
G02*
X7316000Y-3048000I-50000J0D01*
G01*
X7316000Y-3048000D02*
G75*
G02*
X7416000Y-3048000I50000J0D01*
G01*
X7416000Y-4064000D02*
G75*
G02*
X7316000Y-4064000I-50000J0D01*
G01*
X7316000Y-4064000D02*
G75*
G02*
X7416000Y-4064000I50000J0D01*
G01*
X7416000Y-5080000D02*
G75*
G02*
X7316000Y-5080000I-50000J0D01*
G01*
X7316000Y-5080000D02*
G75*
G02*
X7416000Y-5080000I50000J0D01*
G01*
X7670000Y-3048000D02*
G75*
G02*
X7570000Y-3048000I-50000J0D01*
G01*
X7570000Y-3048000D02*
G75*
G02*
X7670000Y-3048000I50000J0D01*
G01*
X7670000Y-4064000D02*
G75*
G02*
X7570000Y-4064000I-50000J0D01*
G01*
X7570000Y-4064000D02*
G75*
G02*
X7670000Y-4064000I50000J0D01*
G01*
X7670000Y-5842000D02*
G75*
G02*
X7570000Y-5842000I-50000J0D01*
G01*
X7570000Y-5842000D02*
G75*
G02*
X7670000Y-5842000I50000J0D01*
G01*
X7670000Y-7620000D02*
G75*
G02*
X7570000Y-7620000I-50000J0D01*
G01*
X7570000Y-7620000D02*
G75*
G02*
X7670000Y-7620000I50000J0D01*
G01*
X7924000Y-3048000D02*
G75*
G02*
X7824000Y-3048000I-50000J0D01*
G01*
X7824000Y-3048000D02*
G75*
G02*
X7924000Y-3048000I50000J0D01*
G01*
X7924000Y-4064000D02*
G75*
G02*
X7824000Y-4064000I-50000J0D01*
G01*
X7824000Y-4064000D02*
G75*
G02*
X7924000Y-4064000I50000J0D01*
G01*
X8178000Y-3048000D02*
G75*
G02*
X8078000Y-3048000I-50000J0D01*
G01*
X8078000Y-3048000D02*
G75*
G02*
X8178000Y-3048000I50000J0D01*
G01*
X8178000Y-4064000D02*
G75*
G02*
X8078000Y-4064000I-50000J0D01*
G01*
X8078000Y-4064000D02*
G75*
G02*
X8178000Y-4064000I50000J0D01*
G01*
X8432000Y-3048000D02*
G75*
G02*
X8332000Y-3048000I-50000J0D01*
G01*
X8332000Y-3048000D02*
G75*
G02*
X8432000Y-3048000I50000J0D01*
G01*
X8432000Y-4064000D02*
G75*
G02*
X8332000Y-4064000I-50000J0D01*
G01*
X8332000Y-4064000D02*
G75*
G02*
X8432000Y-4064000I50000J0D01*
G01*
X9194000Y-7620000D02*
G75*
G02*
X9094000Y-7620000I-50000J0D01*
G01*
X9094000Y-7620000D02*
G75*
G02*
X9194000Y-7620000I50000J0D01*
G01*
X9448000Y-7620000D02*
G75*
G02*
X9348000Y-7620000I-50000J0D01*
G01*
X9348000Y-7620000D02*
G75*
G02*
X9448000Y-7620000I50000J0D01*
G01*
X9702000Y-7620000D02*
G75*
G02*
X9602000Y-7620000I-50000J0D01*
G01*
X9602000Y-7620000D02*
G75*
G02*
X9702000Y-7620000I50000J0D01*
G01*
X9956000Y-2794000D02*
G75*
G02*
X9856000Y-2794000I-50000J0D01*
G01*
X9856000Y-2794000D02*
G75*
G02*
X9956000Y-2794000I50000J0D01*
G01*
X9956000Y-7620000D02*
G75*
G02*
X9856000Y-7620000I-50000J0D01*
G01*
X9856000Y-7620000D02*
G75*
G02*
X9956000Y-7620000I50000J0D01*
G01*
X10210000Y-2794000D02*
G75*
G02*
X10110000Y-2794000I-50000J0D01*
G01*
X10110000Y-2794000D02*
G75*
G02*
X10210000Y-2794000I50000J0D01*
G01*
X10210000Y-7620000D02*
G75*
G02*
X10110000Y-7620000I-50000J0D01*
G01*
X10110000Y-7620000D02*
G75*
G02*
X10210000Y-7620000I50000J0D01*
G01*
X10464000Y-2794000D02*
G75*
G02*
X10364000Y-2794000I-50000J0D01*
G01*
X10364000Y-2794000D02*
G75*
G02*
X10464000Y-2794000I50000J0D01*
G01*
X10464000Y-7620000D02*
G75*
G02*
X10364000Y-7620000I-50000J0D01*
G01*
X10364000Y-7620000D02*
G75*
G02*
X10464000Y-7620000I50000J0D01*
G01*
X10718000Y-7620000D02*
G75*
G02*
X10618000Y-7620000I-50000J0D01*
G01*
X10618000Y-7620000D02*
G75*
G02*
X10718000Y-7620000I50000J0D01*
G01*
D13*
X3556000Y-2870200D02*
X3556000Y-2971800D01*
X3505200Y-2921000D02*
X3606800Y-2921000D01*
X3556000Y-3124200D02*
X3556000Y-3225800D01*
X3505200Y-3175000D02*
X3606800Y-3175000D01*
X3556000Y-3378200D02*
X3556000Y-3479800D01*
X3505200Y-3429000D02*
X3606800Y-3429000D01*
X3556000Y-3632200D02*
X3556000Y-3733800D01*
X3505200Y-3683000D02*
X3606800Y-3683000D01*
X3556000Y-3886200D02*
X3556000Y-3987800D01*
X3505200Y-3937000D02*
X3606800Y-3937000D01*
X3556000Y-4140200D02*
X3556000Y-4241800D01*
X3505200Y-4191000D02*
X3606800Y-4191000D01*
X3810000Y-2743200D02*
X3810000Y-2844800D01*
X3759200Y-2794000D02*
X3860800Y-2794000D01*
X3810000Y-4267200D02*
X3810000Y-4368800D01*
X3759200Y-4318000D02*
X3860800Y-4318000D01*
X4064000Y-2743200D02*
X4064000Y-2844800D01*
X4013200Y-2794000D02*
X4114800Y-2794000D01*
X4064000Y-4267200D02*
X4064000Y-4368800D01*
X4013200Y-4318000D02*
X4114800Y-4318000D01*
X4318000Y-2743200D02*
X4318000Y-2844800D01*
X4267200Y-2794000D02*
X4368800Y-2794000D01*
X4318000Y-4267200D02*
X4318000Y-4368800D01*
X4267200Y-4318000D02*
X4368800Y-4318000D01*
X4572000Y-2743200D02*
X4572000Y-2844800D01*
X4521200Y-2794000D02*
X4622800Y-2794000D01*
X4572000Y-4267200D02*
X4572000Y-4368800D01*
X4521200Y-4318000D02*
X4622800Y-4318000D01*
X4686300Y-3035300D02*
X4686300Y-3136900D01*
X4635500Y-3086100D02*
X4737100Y-3086100D01*
X4826000Y-2743200D02*
X4826000Y-2844800D01*
X4775200Y-2794000D02*
X4876800Y-2794000D01*
X4826000Y-4267200D02*
X4826000Y-4368800D01*
X4775200Y-4318000D02*
X4876800Y-4318000D01*
X4940300Y-3035300D02*
X4940300Y-3136900D01*
X4889500Y-3086100D02*
X4991100Y-3086100D01*
X5080000Y-2743200D02*
X5080000Y-2844800D01*
X5029200Y-2794000D02*
X5130800Y-2794000D01*
X5080000Y-4267200D02*
X5080000Y-4368800D01*
X5029200Y-4318000D02*
X5130800Y-4318000D01*
X5334000Y-2743200D02*
X5334000Y-2844800D01*
X5283200Y-2794000D02*
X5384800Y-2794000D01*
X5334000Y-4267200D02*
X5334000Y-4368800D01*
X5283200Y-4318000D02*
X5384800Y-4318000D01*
X5588000Y-2743200D02*
X5588000Y-2844800D01*
X5537200Y-2794000D02*
X5638800Y-2794000D01*
X5588000Y-4267200D02*
X5588000Y-4368800D01*
X5537200Y-4318000D02*
X5638800Y-4318000D01*
X5727700Y-3035300D02*
X5727700Y-3136900D01*
X5676900Y-3086100D02*
X5778500Y-3086100D01*
X5842000Y-2743200D02*
X5842000Y-2844800D01*
X5791200Y-2794000D02*
X5892800Y-2794000D01*
X5842000Y-4267200D02*
X5842000Y-4368800D01*
X5791200Y-4318000D02*
X5892800Y-4318000D01*
X5981700Y-3035300D02*
X5981700Y-3136900D01*
X5930900Y-3086100D02*
X6032500Y-3086100D01*
X6096000Y-2743200D02*
X6096000Y-2844800D01*
X6045200Y-2794000D02*
X6146800Y-2794000D01*
X6096000Y-4267200D02*
X6096000Y-4368800D01*
X6045200Y-4318000D02*
X6146800Y-4318000D01*
X6350000Y-2743200D02*
X6350000Y-2844800D01*
X6299200Y-2794000D02*
X6400800Y-2794000D01*
X6350000Y-4267200D02*
X6350000Y-4368800D01*
X6299200Y-4318000D02*
X6400800Y-4318000D01*
X6604000Y-2743200D02*
X6604000Y-2844800D01*
X6553200Y-2794000D02*
X6654800Y-2794000D01*
X6604000Y-4267200D02*
X6604000Y-4368800D01*
X6553200Y-4318000D02*
X6654800Y-4318000D01*
D11*
X2798277Y-8695984D02*
X2798277Y-8495984D01*
X2798277Y-8495984D02*
X2845896Y-8495984D01*
X2845896Y-8495984D02*
X2874467Y-8505508D01*
X2874467Y-8505508D02*
X2893515Y-8524555D01*
X2893515Y-8524555D02*
X2903039Y-8543603D01*
X2903039Y-8543603D02*
X2912562Y-8581698D01*
X2912562Y-8581698D02*
X2912562Y-8610270D01*
X2912562Y-8610270D02*
X2903039Y-8648365D01*
X2903039Y-8648365D02*
X2893515Y-8667412D01*
X2893515Y-8667412D02*
X2874467Y-8686460D01*
X2874467Y-8686460D02*
X2845896Y-8695984D01*
X2845896Y-8695984D02*
X2798277Y-8695984D01*
X2998277Y-8695984D02*
X2998277Y-8562650D01*
X2998277Y-8600746D02*
X3007801Y-8581698D01*
X3007801Y-8581698D02*
X3017324Y-8572174D01*
X3017324Y-8572174D02*
X3036372Y-8562650D01*
X3036372Y-8562650D02*
X3055420Y-8562650D01*
X3122086Y-8695984D02*
X3122086Y-8562650D01*
X3122086Y-8495984D02*
X3112562Y-8505508D01*
X3112562Y-8505508D02*
X3122086Y-8515031D01*
X3122086Y-8515031D02*
X3131610Y-8505508D01*
X3131610Y-8505508D02*
X3122086Y-8495984D01*
X3122086Y-8495984D02*
X3122086Y-8515031D01*
X3245896Y-8695984D02*
X3226848Y-8686460D01*
X3226848Y-8686460D02*
X3217324Y-8667412D01*
X3217324Y-8667412D02*
X3217324Y-8495984D01*
X3350658Y-8695984D02*
X3331610Y-8686460D01*
X3331610Y-8686460D02*
X3322086Y-8667412D01*
X3322086Y-8667412D02*
X3322086Y-8495984D01*
X3579229Y-8695984D02*
X3579229Y-8495984D01*
X3579229Y-8495984D02*
X3645896Y-8638841D01*
X3645896Y-8638841D02*
X3712562Y-8495984D01*
X3712562Y-8495984D02*
X3712562Y-8695984D01*
X3893515Y-8695984D02*
X3893515Y-8591222D01*
X3893515Y-8591222D02*
X3883991Y-8572174D01*
X3883991Y-8572174D02*
X3864943Y-8562650D01*
X3864943Y-8562650D02*
X3826848Y-8562650D01*
X3826848Y-8562650D02*
X3807801Y-8572174D01*
X3893515Y-8686460D02*
X3874467Y-8695984D01*
X3874467Y-8695984D02*
X3826848Y-8695984D01*
X3826848Y-8695984D02*
X3807801Y-8686460D01*
X3807801Y-8686460D02*
X3798277Y-8667412D01*
X3798277Y-8667412D02*
X3798277Y-8648365D01*
X3798277Y-8648365D02*
X3807801Y-8629317D01*
X3807801Y-8629317D02*
X3826848Y-8619793D01*
X3826848Y-8619793D02*
X3874467Y-8619793D01*
X3874467Y-8619793D02*
X3893515Y-8610270D01*
X3988753Y-8562650D02*
X3988753Y-8762650D01*
X3988753Y-8572174D02*
X4007801Y-8562650D01*
X4007801Y-8562650D02*
X4045896Y-8562650D01*
X4045896Y-8562650D02*
X4064943Y-8572174D01*
X4064943Y-8572174D02*
X4074467Y-8581698D01*
X4074467Y-8581698D02*
X4083991Y-8600746D01*
X4083991Y-8600746D02*
X4083991Y-8657889D01*
X4083991Y-8657889D02*
X4074467Y-8676936D01*
X4074467Y-8676936D02*
X4064943Y-8686460D01*
X4064943Y-8686460D02*
X4045896Y-8695984D01*
X4045896Y-8695984D02*
X4007801Y-8695984D01*
X4007801Y-8695984D02*
X3988753Y-8686460D01*
X4169705Y-8676936D02*
X4179229Y-8686460D01*
X4179229Y-8686460D02*
X4169705Y-8695984D01*
X4169705Y-8695984D02*
X4160182Y-8686460D01*
X4160182Y-8686460D02*
X4169705Y-8676936D01*
X4169705Y-8676936D02*
X4169705Y-8695984D01*
X4169705Y-8572174D02*
X4179229Y-8581698D01*
X4179229Y-8581698D02*
X4169705Y-8591222D01*
X4169705Y-8591222D02*
X4160182Y-8581698D01*
X4160182Y-8581698D02*
X4169705Y-8572174D01*
X4169705Y-8572174D02*
X4169705Y-8591222D01*
D12*
X2507500Y-9009500D02*
X2537500Y-9039500D01*
X2537500Y-9009500D02*
X2507500Y-9039500D01*
D11*
X2836372Y-8915984D02*
X2855420Y-8915984D01*
X2855420Y-8915984D02*
X2874467Y-8925508D01*
X2874467Y-8925508D02*
X2883991Y-8935031D01*
X2883991Y-8935031D02*
X2893515Y-8954079D01*
X2893515Y-8954079D02*
X2903039Y-8992174D01*
X2903039Y-8992174D02*
X2903039Y-9039793D01*
X2903039Y-9039793D02*
X2893515Y-9077889D01*
X2893515Y-9077889D02*
X2883991Y-9096936D01*
X2883991Y-9096936D02*
X2874467Y-9106460D01*
X2874467Y-9106460D02*
X2855420Y-9115984D01*
X2855420Y-9115984D02*
X2836372Y-9115984D01*
X2836372Y-9115984D02*
X2817324Y-9106460D01*
X2817324Y-9106460D02*
X2807801Y-9096936D01*
X2807801Y-9096936D02*
X2798277Y-9077889D01*
X2798277Y-9077889D02*
X2788753Y-9039793D01*
X2788753Y-9039793D02*
X2788753Y-8992174D01*
X2788753Y-8992174D02*
X2798277Y-8954079D01*
X2798277Y-8954079D02*
X2807801Y-8935031D01*
X2807801Y-8935031D02*
X2817324Y-8925508D01*
X2817324Y-8925508D02*
X2836372Y-8915984D01*
X2988753Y-9096936D02*
X2998277Y-9106460D01*
X2998277Y-9106460D02*
X2988753Y-9115984D01*
X2988753Y-9115984D02*
X2979229Y-9106460D01*
X2979229Y-9106460D02*
X2988753Y-9096936D01*
X2988753Y-9096936D02*
X2988753Y-9115984D01*
X3064943Y-8915984D02*
X3188753Y-8915984D01*
X3188753Y-8915984D02*
X3122086Y-8992174D01*
X3122086Y-8992174D02*
X3150658Y-8992174D01*
X3150658Y-8992174D02*
X3169705Y-9001698D01*
X3169705Y-9001698D02*
X3179229Y-9011222D01*
X3179229Y-9011222D02*
X3188753Y-9030270D01*
X3188753Y-9030270D02*
X3188753Y-9077889D01*
X3188753Y-9077889D02*
X3179229Y-9096936D01*
X3179229Y-9096936D02*
X3169705Y-9106460D01*
X3169705Y-9106460D02*
X3150658Y-9115984D01*
X3150658Y-9115984D02*
X3093515Y-9115984D01*
X3093515Y-9115984D02*
X3074467Y-9106460D01*
X3074467Y-9106460D02*
X3064943Y-9096936D01*
X3312562Y-8915984D02*
X3331610Y-8915984D01*
X3331610Y-8915984D02*
X3350658Y-8925508D01*
X3350658Y-8925508D02*
X3360182Y-8935031D01*
X3360182Y-8935031D02*
X3369705Y-8954079D01*
X3369705Y-8954079D02*
X3379229Y-8992174D01*
X3379229Y-8992174D02*
X3379229Y-9039793D01*
X3379229Y-9039793D02*
X3369705Y-9077889D01*
X3369705Y-9077889D02*
X3360182Y-9096936D01*
X3360182Y-9096936D02*
X3350658Y-9106460D01*
X3350658Y-9106460D02*
X3331610Y-9115984D01*
X3331610Y-9115984D02*
X3312562Y-9115984D01*
X3312562Y-9115984D02*
X3293515Y-9106460D01*
X3293515Y-9106460D02*
X3283991Y-9096936D01*
X3283991Y-9096936D02*
X3274467Y-9077889D01*
X3274467Y-9077889D02*
X3264943Y-9039793D01*
X3264943Y-9039793D02*
X3264943Y-8992174D01*
X3264943Y-8992174D02*
X3274467Y-8954079D01*
X3274467Y-8954079D02*
X3283991Y-8935031D01*
X3283991Y-8935031D02*
X3293515Y-8925508D01*
X3293515Y-8925508D02*
X3312562Y-8915984D01*
X3503039Y-8915984D02*
X3522086Y-8915984D01*
X3522086Y-8915984D02*
X3541134Y-8925508D01*
X3541134Y-8925508D02*
X3550658Y-8935031D01*
X3550658Y-8935031D02*
X3560182Y-8954079D01*
X3560182Y-8954079D02*
X3569705Y-8992174D01*
X3569705Y-8992174D02*
X3569705Y-9039793D01*
X3569705Y-9039793D02*
X3560182Y-9077889D01*
X3560182Y-9077889D02*
X3550658Y-9096936D01*
X3550658Y-9096936D02*
X3541134Y-9106460D01*
X3541134Y-9106460D02*
X3522086Y-9115984D01*
X3522086Y-9115984D02*
X3503039Y-9115984D01*
X3503039Y-9115984D02*
X3483991Y-9106460D01*
X3483991Y-9106460D02*
X3474467Y-9096936D01*
X3474467Y-9096936D02*
X3464943Y-9077889D01*
X3464943Y-9077889D02*
X3455420Y-9039793D01*
X3455420Y-9039793D02*
X3455420Y-8992174D01*
X3455420Y-8992174D02*
X3464943Y-8954079D01*
X3464943Y-8954079D02*
X3474467Y-8935031D01*
X3474467Y-8935031D02*
X3483991Y-8925508D01*
X3483991Y-8925508D02*
X3503039Y-8915984D01*
X3655420Y-9115984D02*
X3655420Y-8982650D01*
X3655420Y-9001698D02*
X3664943Y-8992174D01*
X3664943Y-8992174D02*
X3683991Y-8982650D01*
X3683991Y-8982650D02*
X3712563Y-8982650D01*
X3712563Y-8982650D02*
X3731610Y-8992174D01*
X3731610Y-8992174D02*
X3741134Y-9011222D01*
X3741134Y-9011222D02*
X3741134Y-9115984D01*
X3741134Y-9011222D02*
X3750658Y-8992174D01*
X3750658Y-8992174D02*
X3769705Y-8982650D01*
X3769705Y-8982650D02*
X3798277Y-8982650D01*
X3798277Y-8982650D02*
X3817324Y-8992174D01*
X3817324Y-8992174D02*
X3826848Y-9011222D01*
X3826848Y-9011222D02*
X3826848Y-9115984D01*
X3922086Y-9115984D02*
X3922086Y-8982650D01*
X3922086Y-9001698D02*
X3931610Y-8992174D01*
X3931610Y-8992174D02*
X3950658Y-8982650D01*
X3950658Y-8982650D02*
X3979229Y-8982650D01*
X3979229Y-8982650D02*
X3998277Y-8992174D01*
X3998277Y-8992174D02*
X4007801Y-9011222D01*
X4007801Y-9011222D02*
X4007801Y-9115984D01*
X4007801Y-9011222D02*
X4017324Y-8992174D01*
X4017324Y-8992174D02*
X4036372Y-8982650D01*
X4036372Y-8982650D02*
X4064943Y-8982650D01*
X4064943Y-8982650D02*
X4083991Y-8992174D01*
X4083991Y-8992174D02*
X4093515Y-9011222D01*
X4093515Y-9011222D02*
X4093515Y-9115984D01*
X4483991Y-8906460D02*
X4312563Y-9163603D01*
X4741134Y-8915984D02*
X4760182Y-8915984D01*
X4760182Y-8915984D02*
X4779229Y-8925508D01*
X4779229Y-8925508D02*
X4788753Y-8935031D01*
X4788753Y-8935031D02*
X4798277Y-8954079D01*
X4798277Y-8954079D02*
X4807801Y-8992174D01*
X4807801Y-8992174D02*
X4807801Y-9039793D01*
X4807801Y-9039793D02*
X4798277Y-9077889D01*
X4798277Y-9077889D02*
X4788753Y-9096936D01*
X4788753Y-9096936D02*
X4779229Y-9106460D01*
X4779229Y-9106460D02*
X4760182Y-9115984D01*
X4760182Y-9115984D02*
X4741134Y-9115984D01*
X4741134Y-9115984D02*
X4722087Y-9106460D01*
X4722087Y-9106460D02*
X4712563Y-9096936D01*
X4712563Y-9096936D02*
X4703039Y-9077889D01*
X4703039Y-9077889D02*
X4693515Y-9039793D01*
X4693515Y-9039793D02*
X4693515Y-8992174D01*
X4693515Y-8992174D02*
X4703039Y-8954079D01*
X4703039Y-8954079D02*
X4712563Y-8935031D01*
X4712563Y-8935031D02*
X4722087Y-8925508D01*
X4722087Y-8925508D02*
X4741134Y-8915984D01*
X4893515Y-9096936D02*
X4903039Y-9106460D01*
X4903039Y-9106460D02*
X4893515Y-9115984D01*
X4893515Y-9115984D02*
X4883991Y-9106460D01*
X4883991Y-9106460D02*
X4893515Y-9096936D01*
X4893515Y-9096936D02*
X4893515Y-9115984D01*
X5026848Y-8915984D02*
X5045896Y-8915984D01*
X5045896Y-8915984D02*
X5064944Y-8925508D01*
X5064944Y-8925508D02*
X5074468Y-8935031D01*
X5074468Y-8935031D02*
X5083991Y-8954079D01*
X5083991Y-8954079D02*
X5093515Y-8992174D01*
X5093515Y-8992174D02*
X5093515Y-9039793D01*
X5093515Y-9039793D02*
X5083991Y-9077889D01*
X5083991Y-9077889D02*
X5074468Y-9096936D01*
X5074468Y-9096936D02*
X5064944Y-9106460D01*
X5064944Y-9106460D02*
X5045896Y-9115984D01*
X5045896Y-9115984D02*
X5026848Y-9115984D01*
X5026848Y-9115984D02*
X5007801Y-9106460D01*
X5007801Y-9106460D02*
X4998277Y-9096936D01*
X4998277Y-9096936D02*
X4988753Y-9077889D01*
X4988753Y-9077889D02*
X4979229Y-9039793D01*
X4979229Y-9039793D02*
X4979229Y-8992174D01*
X4979229Y-8992174D02*
X4988753Y-8954079D01*
X4988753Y-8954079D02*
X4998277Y-8935031D01*
X4998277Y-8935031D02*
X5007801Y-8925508D01*
X5007801Y-8925508D02*
X5026848Y-8915984D01*
X5283991Y-9115984D02*
X5169706Y-9115984D01*
X5226848Y-9115984D02*
X5226848Y-8915984D01*
X5226848Y-8915984D02*
X5207801Y-8944555D01*
X5207801Y-8944555D02*
X5188753Y-8963603D01*
X5188753Y-8963603D02*
X5169706Y-8973127D01*
X5474468Y-9115984D02*
X5360182Y-9115984D01*
X5417325Y-9115984D02*
X5417325Y-8915984D01*
X5417325Y-8915984D02*
X5398277Y-8944555D01*
X5398277Y-8944555D02*
X5379229Y-8963603D01*
X5379229Y-8963603D02*
X5360182Y-8973127D01*
X5588753Y-9001698D02*
X5569706Y-8992174D01*
X5569706Y-8992174D02*
X5560182Y-8982650D01*
X5560182Y-8982650D02*
X5550658Y-8963603D01*
X5550658Y-8963603D02*
X5550658Y-8954079D01*
X5550658Y-8954079D02*
X5560182Y-8935031D01*
X5560182Y-8935031D02*
X5569706Y-8925508D01*
X5569706Y-8925508D02*
X5588753Y-8915984D01*
X5588753Y-8915984D02*
X5626848Y-8915984D01*
X5626848Y-8915984D02*
X5645896Y-8925508D01*
X5645896Y-8925508D02*
X5655420Y-8935031D01*
X5655420Y-8935031D02*
X5664944Y-8954079D01*
X5664944Y-8954079D02*
X5664944Y-8963603D01*
X5664944Y-8963603D02*
X5655420Y-8982650D01*
X5655420Y-8982650D02*
X5645896Y-8992174D01*
X5645896Y-8992174D02*
X5626848Y-9001698D01*
X5626848Y-9001698D02*
X5588753Y-9001698D01*
X5588753Y-9001698D02*
X5569706Y-9011222D01*
X5569706Y-9011222D02*
X5560182Y-9020746D01*
X5560182Y-9020746D02*
X5550658Y-9039793D01*
X5550658Y-9039793D02*
X5550658Y-9077889D01*
X5550658Y-9077889D02*
X5560182Y-9096936D01*
X5560182Y-9096936D02*
X5569706Y-9106460D01*
X5569706Y-9106460D02*
X5588753Y-9115984D01*
X5588753Y-9115984D02*
X5626848Y-9115984D01*
X5626848Y-9115984D02*
X5645896Y-9106460D01*
X5645896Y-9106460D02*
X5655420Y-9096936D01*
X5655420Y-9096936D02*
X5664944Y-9077889D01*
X5664944Y-9077889D02*
X5664944Y-9039793D01*
X5664944Y-9039793D02*
X5655420Y-9020746D01*
X5655420Y-9020746D02*
X5645896Y-9011222D01*
X5645896Y-9011222D02*
X5626848Y-9001698D01*
X5741134Y-8915984D02*
X5741134Y-8954079D01*
X5817325Y-8915984D02*
X5817325Y-8954079D01*
X6112563Y-9192174D02*
X6103039Y-9182650D01*
X6103039Y-9182650D02*
X6083991Y-9154079D01*
X6083991Y-9154079D02*
X6074468Y-9135031D01*
X6074468Y-9135031D02*
X6064944Y-9106460D01*
X6064944Y-9106460D02*
X6055420Y-9058841D01*
X6055420Y-9058841D02*
X6055420Y-9020746D01*
X6055420Y-9020746D02*
X6064944Y-8973127D01*
X6064944Y-8973127D02*
X6074468Y-8944555D01*
X6074468Y-8944555D02*
X6083991Y-8925508D01*
X6083991Y-8925508D02*
X6103039Y-8896936D01*
X6103039Y-8896936D02*
X6112563Y-8887412D01*
X6169706Y-8915984D02*
X6293515Y-8915984D01*
X6293515Y-8915984D02*
X6226848Y-8992174D01*
X6226848Y-8992174D02*
X6255420Y-8992174D01*
X6255420Y-8992174D02*
X6274468Y-9001698D01*
X6274468Y-9001698D02*
X6283991Y-9011222D01*
X6283991Y-9011222D02*
X6293515Y-9030270D01*
X6293515Y-9030270D02*
X6293515Y-9077889D01*
X6293515Y-9077889D02*
X6283991Y-9096936D01*
X6283991Y-9096936D02*
X6274468Y-9106460D01*
X6274468Y-9106460D02*
X6255420Y-9115984D01*
X6255420Y-9115984D02*
X6198277Y-9115984D01*
X6198277Y-9115984D02*
X6179229Y-9106460D01*
X6179229Y-9106460D02*
X6169706Y-9096936D01*
X6531610Y-9115984D02*
X6531610Y-8915984D01*
X6617325Y-9115984D02*
X6617325Y-9011222D01*
X6617325Y-9011222D02*
X6607801Y-8992174D01*
X6607801Y-8992174D02*
X6588753Y-8982650D01*
X6588753Y-8982650D02*
X6560182Y-8982650D01*
X6560182Y-8982650D02*
X6541134Y-8992174D01*
X6541134Y-8992174D02*
X6531610Y-9001698D01*
X6741134Y-9115984D02*
X6722087Y-9106460D01*
X6722087Y-9106460D02*
X6712563Y-9096936D01*
X6712563Y-9096936D02*
X6703039Y-9077889D01*
X6703039Y-9077889D02*
X6703039Y-9020746D01*
X6703039Y-9020746D02*
X6712563Y-9001698D01*
X6712563Y-9001698D02*
X6722087Y-8992174D01*
X6722087Y-8992174D02*
X6741134Y-8982650D01*
X6741134Y-8982650D02*
X6769706Y-8982650D01*
X6769706Y-8982650D02*
X6788753Y-8992174D01*
X6788753Y-8992174D02*
X6798277Y-9001698D01*
X6798277Y-9001698D02*
X6807801Y-9020746D01*
X6807801Y-9020746D02*
X6807801Y-9077889D01*
X6807801Y-9077889D02*
X6798277Y-9096936D01*
X6798277Y-9096936D02*
X6788753Y-9106460D01*
X6788753Y-9106460D02*
X6769706Y-9115984D01*
X6769706Y-9115984D02*
X6741134Y-9115984D01*
X6922087Y-9115984D02*
X6903039Y-9106460D01*
X6903039Y-9106460D02*
X6893515Y-9087412D01*
X6893515Y-9087412D02*
X6893515Y-8915984D01*
X7074468Y-9106460D02*
X7055420Y-9115984D01*
X7055420Y-9115984D02*
X7017325Y-9115984D01*
X7017325Y-9115984D02*
X6998277Y-9106460D01*
X6998277Y-9106460D02*
X6988753Y-9087412D01*
X6988753Y-9087412D02*
X6988753Y-9011222D01*
X6988753Y-9011222D02*
X6998277Y-8992174D01*
X6998277Y-8992174D02*
X7017325Y-8982650D01*
X7017325Y-8982650D02*
X7055420Y-8982650D01*
X7055420Y-8982650D02*
X7074468Y-8992174D01*
X7074468Y-8992174D02*
X7083991Y-9011222D01*
X7083991Y-9011222D02*
X7083991Y-9030270D01*
X7083991Y-9030270D02*
X6988753Y-9049317D01*
X7160182Y-9106460D02*
X7179230Y-9115984D01*
X7179230Y-9115984D02*
X7217325Y-9115984D01*
X7217325Y-9115984D02*
X7236372Y-9106460D01*
X7236372Y-9106460D02*
X7245896Y-9087412D01*
X7245896Y-9087412D02*
X7245896Y-9077889D01*
X7245896Y-9077889D02*
X7236372Y-9058841D01*
X7236372Y-9058841D02*
X7217325Y-9049317D01*
X7217325Y-9049317D02*
X7188753Y-9049317D01*
X7188753Y-9049317D02*
X7169706Y-9039793D01*
X7169706Y-9039793D02*
X7160182Y-9020746D01*
X7160182Y-9020746D02*
X7160182Y-9011222D01*
X7160182Y-9011222D02*
X7169706Y-8992174D01*
X7169706Y-8992174D02*
X7188753Y-8982650D01*
X7188753Y-8982650D02*
X7217325Y-8982650D01*
X7217325Y-8982650D02*
X7236372Y-8992174D01*
X7312563Y-9192174D02*
X7322087Y-9182650D01*
X7322087Y-9182650D02*
X7341134Y-9154079D01*
X7341134Y-9154079D02*
X7350658Y-9135031D01*
X7350658Y-9135031D02*
X7360182Y-9106460D01*
X7360182Y-9106460D02*
X7369706Y-9058841D01*
X7369706Y-9058841D02*
X7369706Y-9020746D01*
X7369706Y-9020746D02*
X7360182Y-8973127D01*
X7360182Y-8973127D02*
X7350658Y-8944555D01*
X7350658Y-8944555D02*
X7341134Y-8925508D01*
X7341134Y-8925508D02*
X7322087Y-8896936D01*
X7322087Y-8896936D02*
X7312563Y-8887412D01*
D12*
X2537500Y-9288500D02*
G75*
G02*
X2437500Y-9288500I-50000J0D01*
G01*
X2437500Y-9288500D02*
G75*
G02*
X2537500Y-9288500I50000J0D01*
G01*
D11*
X2903039Y-9379984D02*
X2788753Y-9379984D01*
X2845896Y-9379984D02*
X2845896Y-9179984D01*
X2845896Y-9179984D02*
X2826848Y-9208555D01*
X2826848Y-9208555D02*
X2807801Y-9227603D01*
X2807801Y-9227603D02*
X2788753Y-9237127D01*
X2988753Y-9360936D02*
X2998277Y-9370460D01*
X2998277Y-9370460D02*
X2988753Y-9379984D01*
X2988753Y-9379984D02*
X2979229Y-9370460D01*
X2979229Y-9370460D02*
X2988753Y-9360936D01*
X2988753Y-9360936D02*
X2988753Y-9379984D01*
X3122086Y-9179984D02*
X3141134Y-9179984D01*
X3141134Y-9179984D02*
X3160182Y-9189508D01*
X3160182Y-9189508D02*
X3169705Y-9199031D01*
X3169705Y-9199031D02*
X3179229Y-9218079D01*
X3179229Y-9218079D02*
X3188753Y-9256174D01*
X3188753Y-9256174D02*
X3188753Y-9303793D01*
X3188753Y-9303793D02*
X3179229Y-9341889D01*
X3179229Y-9341889D02*
X3169705Y-9360936D01*
X3169705Y-9360936D02*
X3160182Y-9370460D01*
X3160182Y-9370460D02*
X3141134Y-9379984D01*
X3141134Y-9379984D02*
X3122086Y-9379984D01*
X3122086Y-9379984D02*
X3103039Y-9370460D01*
X3103039Y-9370460D02*
X3093515Y-9360936D01*
X3093515Y-9360936D02*
X3083991Y-9341889D01*
X3083991Y-9341889D02*
X3074467Y-9303793D01*
X3074467Y-9303793D02*
X3074467Y-9256174D01*
X3074467Y-9256174D02*
X3083991Y-9218079D01*
X3083991Y-9218079D02*
X3093515Y-9199031D01*
X3093515Y-9199031D02*
X3103039Y-9189508D01*
X3103039Y-9189508D02*
X3122086Y-9179984D01*
X3312562Y-9179984D02*
X3331610Y-9179984D01*
X3331610Y-9179984D02*
X3350658Y-9189508D01*
X3350658Y-9189508D02*
X3360182Y-9199031D01*
X3360182Y-9199031D02*
X3369705Y-9218079D01*
X3369705Y-9218079D02*
X3379229Y-9256174D01*
X3379229Y-9256174D02*
X3379229Y-9303793D01*
X3379229Y-9303793D02*
X3369705Y-9341889D01*
X3369705Y-9341889D02*
X3360182Y-9360936D01*
X3360182Y-9360936D02*
X3350658Y-9370460D01*
X3350658Y-9370460D02*
X3331610Y-9379984D01*
X3331610Y-9379984D02*
X3312562Y-9379984D01*
X3312562Y-9379984D02*
X3293515Y-9370460D01*
X3293515Y-9370460D02*
X3283991Y-9360936D01*
X3283991Y-9360936D02*
X3274467Y-9341889D01*
X3274467Y-9341889D02*
X3264943Y-9303793D01*
X3264943Y-9303793D02*
X3264943Y-9256174D01*
X3264943Y-9256174D02*
X3274467Y-9218079D01*
X3274467Y-9218079D02*
X3283991Y-9199031D01*
X3283991Y-9199031D02*
X3293515Y-9189508D01*
X3293515Y-9189508D02*
X3312562Y-9179984D01*
X3503039Y-9179984D02*
X3522086Y-9179984D01*
X3522086Y-9179984D02*
X3541134Y-9189508D01*
X3541134Y-9189508D02*
X3550658Y-9199031D01*
X3550658Y-9199031D02*
X3560182Y-9218079D01*
X3560182Y-9218079D02*
X3569705Y-9256174D01*
X3569705Y-9256174D02*
X3569705Y-9303793D01*
X3569705Y-9303793D02*
X3560182Y-9341889D01*
X3560182Y-9341889D02*
X3550658Y-9360936D01*
X3550658Y-9360936D02*
X3541134Y-9370460D01*
X3541134Y-9370460D02*
X3522086Y-9379984D01*
X3522086Y-9379984D02*
X3503039Y-9379984D01*
X3503039Y-9379984D02*
X3483991Y-9370460D01*
X3483991Y-9370460D02*
X3474467Y-9360936D01*
X3474467Y-9360936D02*
X3464943Y-9341889D01*
X3464943Y-9341889D02*
X3455420Y-9303793D01*
X3455420Y-9303793D02*
X3455420Y-9256174D01*
X3455420Y-9256174D02*
X3464943Y-9218079D01*
X3464943Y-9218079D02*
X3474467Y-9199031D01*
X3474467Y-9199031D02*
X3483991Y-9189508D01*
X3483991Y-9189508D02*
X3503039Y-9179984D01*
X3655420Y-9379984D02*
X3655420Y-9246650D01*
X3655420Y-9265698D02*
X3664943Y-9256174D01*
X3664943Y-9256174D02*
X3683991Y-9246650D01*
X3683991Y-9246650D02*
X3712563Y-9246650D01*
X3712563Y-9246650D02*
X3731610Y-9256174D01*
X3731610Y-9256174D02*
X3741134Y-9275222D01*
X3741134Y-9275222D02*
X3741134Y-9379984D01*
X3741134Y-9275222D02*
X3750658Y-9256174D01*
X3750658Y-9256174D02*
X3769705Y-9246650D01*
X3769705Y-9246650D02*
X3798277Y-9246650D01*
X3798277Y-9246650D02*
X3817324Y-9256174D01*
X3817324Y-9256174D02*
X3826848Y-9275222D01*
X3826848Y-9275222D02*
X3826848Y-9379984D01*
X3922086Y-9379984D02*
X3922086Y-9246650D01*
X3922086Y-9265698D02*
X3931610Y-9256174D01*
X3931610Y-9256174D02*
X3950658Y-9246650D01*
X3950658Y-9246650D02*
X3979229Y-9246650D01*
X3979229Y-9246650D02*
X3998277Y-9256174D01*
X3998277Y-9256174D02*
X4007801Y-9275222D01*
X4007801Y-9275222D02*
X4007801Y-9379984D01*
X4007801Y-9275222D02*
X4017324Y-9256174D01*
X4017324Y-9256174D02*
X4036372Y-9246650D01*
X4036372Y-9246650D02*
X4064943Y-9246650D01*
X4064943Y-9246650D02*
X4083991Y-9256174D01*
X4083991Y-9256174D02*
X4093515Y-9275222D01*
X4093515Y-9275222D02*
X4093515Y-9379984D01*
X4483991Y-9170460D02*
X4312563Y-9427603D01*
X4741134Y-9179984D02*
X4760182Y-9179984D01*
X4760182Y-9179984D02*
X4779229Y-9189508D01*
X4779229Y-9189508D02*
X4788753Y-9199031D01*
X4788753Y-9199031D02*
X4798277Y-9218079D01*
X4798277Y-9218079D02*
X4807801Y-9256174D01*
X4807801Y-9256174D02*
X4807801Y-9303793D01*
X4807801Y-9303793D02*
X4798277Y-9341889D01*
X4798277Y-9341889D02*
X4788753Y-9360936D01*
X4788753Y-9360936D02*
X4779229Y-9370460D01*
X4779229Y-9370460D02*
X4760182Y-9379984D01*
X4760182Y-9379984D02*
X4741134Y-9379984D01*
X4741134Y-9379984D02*
X4722087Y-9370460D01*
X4722087Y-9370460D02*
X4712563Y-9360936D01*
X4712563Y-9360936D02*
X4703039Y-9341889D01*
X4703039Y-9341889D02*
X4693515Y-9303793D01*
X4693515Y-9303793D02*
X4693515Y-9256174D01*
X4693515Y-9256174D02*
X4703039Y-9218079D01*
X4703039Y-9218079D02*
X4712563Y-9199031D01*
X4712563Y-9199031D02*
X4722087Y-9189508D01*
X4722087Y-9189508D02*
X4741134Y-9179984D01*
X4893515Y-9360936D02*
X4903039Y-9370460D01*
X4903039Y-9370460D02*
X4893515Y-9379984D01*
X4893515Y-9379984D02*
X4883991Y-9370460D01*
X4883991Y-9370460D02*
X4893515Y-9360936D01*
X4893515Y-9360936D02*
X4893515Y-9379984D01*
X5026848Y-9179984D02*
X5045896Y-9179984D01*
X5045896Y-9179984D02*
X5064944Y-9189508D01*
X5064944Y-9189508D02*
X5074468Y-9199031D01*
X5074468Y-9199031D02*
X5083991Y-9218079D01*
X5083991Y-9218079D02*
X5093515Y-9256174D01*
X5093515Y-9256174D02*
X5093515Y-9303793D01*
X5093515Y-9303793D02*
X5083991Y-9341889D01*
X5083991Y-9341889D02*
X5074468Y-9360936D01*
X5074468Y-9360936D02*
X5064944Y-9370460D01*
X5064944Y-9370460D02*
X5045896Y-9379984D01*
X5045896Y-9379984D02*
X5026848Y-9379984D01*
X5026848Y-9379984D02*
X5007801Y-9370460D01*
X5007801Y-9370460D02*
X4998277Y-9360936D01*
X4998277Y-9360936D02*
X4988753Y-9341889D01*
X4988753Y-9341889D02*
X4979229Y-9303793D01*
X4979229Y-9303793D02*
X4979229Y-9256174D01*
X4979229Y-9256174D02*
X4988753Y-9218079D01*
X4988753Y-9218079D02*
X4998277Y-9199031D01*
X4998277Y-9199031D02*
X5007801Y-9189508D01*
X5007801Y-9189508D02*
X5026848Y-9179984D01*
X5160182Y-9179984D02*
X5283991Y-9179984D01*
X5283991Y-9179984D02*
X5217325Y-9256174D01*
X5217325Y-9256174D02*
X5245896Y-9256174D01*
X5245896Y-9256174D02*
X5264944Y-9265698D01*
X5264944Y-9265698D02*
X5274468Y-9275222D01*
X5274468Y-9275222D02*
X5283991Y-9294270D01*
X5283991Y-9294270D02*
X5283991Y-9341889D01*
X5283991Y-9341889D02*
X5274468Y-9360936D01*
X5274468Y-9360936D02*
X5264944Y-9370460D01*
X5264944Y-9370460D02*
X5245896Y-9379984D01*
X5245896Y-9379984D02*
X5188753Y-9379984D01*
X5188753Y-9379984D02*
X5169706Y-9370460D01*
X5169706Y-9370460D02*
X5160182Y-9360936D01*
X5379229Y-9379984D02*
X5417325Y-9379984D01*
X5417325Y-9379984D02*
X5436372Y-9370460D01*
X5436372Y-9370460D02*
X5445896Y-9360936D01*
X5445896Y-9360936D02*
X5464944Y-9332365D01*
X5464944Y-9332365D02*
X5474468Y-9294270D01*
X5474468Y-9294270D02*
X5474468Y-9218079D01*
X5474468Y-9218079D02*
X5464944Y-9199031D01*
X5464944Y-9199031D02*
X5455420Y-9189508D01*
X5455420Y-9189508D02*
X5436372Y-9179984D01*
X5436372Y-9179984D02*
X5398277Y-9179984D01*
X5398277Y-9179984D02*
X5379229Y-9189508D01*
X5379229Y-9189508D02*
X5369706Y-9199031D01*
X5369706Y-9199031D02*
X5360182Y-9218079D01*
X5360182Y-9218079D02*
X5360182Y-9265698D01*
X5360182Y-9265698D02*
X5369706Y-9284746D01*
X5369706Y-9284746D02*
X5379229Y-9294270D01*
X5379229Y-9294270D02*
X5398277Y-9303793D01*
X5398277Y-9303793D02*
X5436372Y-9303793D01*
X5436372Y-9303793D02*
X5455420Y-9294270D01*
X5455420Y-9294270D02*
X5464944Y-9284746D01*
X5464944Y-9284746D02*
X5474468Y-9265698D01*
X5645896Y-9246650D02*
X5645896Y-9379984D01*
X5598277Y-9170460D02*
X5550658Y-9313317D01*
X5550658Y-9313317D02*
X5674467Y-9313317D01*
X5741134Y-9179984D02*
X5741134Y-9218079D01*
X5817325Y-9179984D02*
X5817325Y-9218079D01*
X6112563Y-9456174D02*
X6103039Y-9446650D01*
X6103039Y-9446650D02*
X6083991Y-9418079D01*
X6083991Y-9418079D02*
X6074468Y-9399031D01*
X6074468Y-9399031D02*
X6064944Y-9370460D01*
X6064944Y-9370460D02*
X6055420Y-9322841D01*
X6055420Y-9322841D02*
X6055420Y-9284746D01*
X6055420Y-9284746D02*
X6064944Y-9237127D01*
X6064944Y-9237127D02*
X6074468Y-9208555D01*
X6074468Y-9208555D02*
X6083991Y-9189508D01*
X6083991Y-9189508D02*
X6103039Y-9160936D01*
X6103039Y-9160936D02*
X6112563Y-9151412D01*
X6169706Y-9179984D02*
X6293515Y-9179984D01*
X6293515Y-9179984D02*
X6226848Y-9256174D01*
X6226848Y-9256174D02*
X6255420Y-9256174D01*
X6255420Y-9256174D02*
X6274468Y-9265698D01*
X6274468Y-9265698D02*
X6283991Y-9275222D01*
X6283991Y-9275222D02*
X6293515Y-9294270D01*
X6293515Y-9294270D02*
X6293515Y-9341889D01*
X6293515Y-9341889D02*
X6283991Y-9360936D01*
X6283991Y-9360936D02*
X6274468Y-9370460D01*
X6274468Y-9370460D02*
X6255420Y-9379984D01*
X6255420Y-9379984D02*
X6198277Y-9379984D01*
X6198277Y-9379984D02*
X6179229Y-9370460D01*
X6179229Y-9370460D02*
X6169706Y-9360936D01*
X6407801Y-9265698D02*
X6388753Y-9256174D01*
X6388753Y-9256174D02*
X6379229Y-9246650D01*
X6379229Y-9246650D02*
X6369706Y-9227603D01*
X6369706Y-9227603D02*
X6369706Y-9218079D01*
X6369706Y-9218079D02*
X6379229Y-9199031D01*
X6379229Y-9199031D02*
X6388753Y-9189508D01*
X6388753Y-9189508D02*
X6407801Y-9179984D01*
X6407801Y-9179984D02*
X6445896Y-9179984D01*
X6445896Y-9179984D02*
X6464944Y-9189508D01*
X6464944Y-9189508D02*
X6474468Y-9199031D01*
X6474468Y-9199031D02*
X6483991Y-9218079D01*
X6483991Y-9218079D02*
X6483991Y-9227603D01*
X6483991Y-9227603D02*
X6474468Y-9246650D01*
X6474468Y-9246650D02*
X6464944Y-9256174D01*
X6464944Y-9256174D02*
X6445896Y-9265698D01*
X6445896Y-9265698D02*
X6407801Y-9265698D01*
X6407801Y-9265698D02*
X6388753Y-9275222D01*
X6388753Y-9275222D02*
X6379229Y-9284746D01*
X6379229Y-9284746D02*
X6369706Y-9303793D01*
X6369706Y-9303793D02*
X6369706Y-9341889D01*
X6369706Y-9341889D02*
X6379229Y-9360936D01*
X6379229Y-9360936D02*
X6388753Y-9370460D01*
X6388753Y-9370460D02*
X6407801Y-9379984D01*
X6407801Y-9379984D02*
X6445896Y-9379984D01*
X6445896Y-9379984D02*
X6464944Y-9370460D01*
X6464944Y-9370460D02*
X6474468Y-9360936D01*
X6474468Y-9360936D02*
X6483991Y-9341889D01*
X6483991Y-9341889D02*
X6483991Y-9303793D01*
X6483991Y-9303793D02*
X6474468Y-9284746D01*
X6474468Y-9284746D02*
X6464944Y-9275222D01*
X6464944Y-9275222D02*
X6445896Y-9265698D01*
X6722087Y-9379984D02*
X6722087Y-9179984D01*
X6807801Y-9379984D02*
X6807801Y-9275222D01*
X6807801Y-9275222D02*
X6798277Y-9256174D01*
X6798277Y-9256174D02*
X6779230Y-9246650D01*
X6779230Y-9246650D02*
X6750658Y-9246650D01*
X6750658Y-9246650D02*
X6731610Y-9256174D01*
X6731610Y-9256174D02*
X6722087Y-9265698D01*
X6931610Y-9379984D02*
X6912563Y-9370460D01*
X6912563Y-9370460D02*
X6903039Y-9360936D01*
X6903039Y-9360936D02*
X6893515Y-9341889D01*
X6893515Y-9341889D02*
X6893515Y-9284746D01*
X6893515Y-9284746D02*
X6903039Y-9265698D01*
X6903039Y-9265698D02*
X6912563Y-9256174D01*
X6912563Y-9256174D02*
X6931610Y-9246650D01*
X6931610Y-9246650D02*
X6960182Y-9246650D01*
X6960182Y-9246650D02*
X6979230Y-9256174D01*
X6979230Y-9256174D02*
X6988753Y-9265698D01*
X6988753Y-9265698D02*
X6998277Y-9284746D01*
X6998277Y-9284746D02*
X6998277Y-9341889D01*
X6998277Y-9341889D02*
X6988753Y-9360936D01*
X6988753Y-9360936D02*
X6979230Y-9370460D01*
X6979230Y-9370460D02*
X6960182Y-9379984D01*
X6960182Y-9379984D02*
X6931610Y-9379984D01*
X7112563Y-9379984D02*
X7093515Y-9370460D01*
X7093515Y-9370460D02*
X7083991Y-9351412D01*
X7083991Y-9351412D02*
X7083991Y-9179984D01*
X7264944Y-9370460D02*
X7245896Y-9379984D01*
X7245896Y-9379984D02*
X7207801Y-9379984D01*
X7207801Y-9379984D02*
X7188753Y-9370460D01*
X7188753Y-9370460D02*
X7179230Y-9351412D01*
X7179230Y-9351412D02*
X7179230Y-9275222D01*
X7179230Y-9275222D02*
X7188753Y-9256174D01*
X7188753Y-9256174D02*
X7207801Y-9246650D01*
X7207801Y-9246650D02*
X7245896Y-9246650D01*
X7245896Y-9246650D02*
X7264944Y-9256174D01*
X7264944Y-9256174D02*
X7274468Y-9275222D01*
X7274468Y-9275222D02*
X7274468Y-9294270D01*
X7274468Y-9294270D02*
X7179230Y-9313317D01*
X7350658Y-9370460D02*
X7369706Y-9379984D01*
X7369706Y-9379984D02*
X7407801Y-9379984D01*
X7407801Y-9379984D02*
X7426849Y-9370460D01*
X7426849Y-9370460D02*
X7436372Y-9351412D01*
X7436372Y-9351412D02*
X7436372Y-9341889D01*
X7436372Y-9341889D02*
X7426849Y-9322841D01*
X7426849Y-9322841D02*
X7407801Y-9313317D01*
X7407801Y-9313317D02*
X7379230Y-9313317D01*
X7379230Y-9313317D02*
X7360182Y-9303793D01*
X7360182Y-9303793D02*
X7350658Y-9284746D01*
X7350658Y-9284746D02*
X7350658Y-9275222D01*
X7350658Y-9275222D02*
X7360182Y-9256174D01*
X7360182Y-9256174D02*
X7379230Y-9246650D01*
X7379230Y-9246650D02*
X7407801Y-9246650D01*
X7407801Y-9246650D02*
X7426849Y-9256174D01*
X7503039Y-9456174D02*
X7512563Y-9446650D01*
X7512563Y-9446650D02*
X7531611Y-9418079D01*
X7531611Y-9418079D02*
X7541134Y-9399031D01*
X7541134Y-9399031D02*
X7550658Y-9370460D01*
X7550658Y-9370460D02*
X7560182Y-9322841D01*
X7560182Y-9322841D02*
X7560182Y-9284746D01*
X7560182Y-9284746D02*
X7550658Y-9237127D01*
X7550658Y-9237127D02*
X7541134Y-9208555D01*
X7541134Y-9208555D02*
X7531611Y-9189508D01*
X7531611Y-9189508D02*
X7512563Y-9160936D01*
X7512563Y-9160936D02*
X7503039Y-9151412D01*
D13*
X2486700Y-9501700D02*
X2486700Y-9603300D01*
X2435900Y-9552500D02*
X2537500Y-9552500D01*
D11*
X2903039Y-9643984D02*
X2788753Y-9643984D01*
X2845896Y-9643984D02*
X2845896Y-9443984D01*
X2845896Y-9443984D02*
X2826848Y-9472555D01*
X2826848Y-9472555D02*
X2807801Y-9491603D01*
X2807801Y-9491603D02*
X2788753Y-9501127D01*
X2988753Y-9624936D02*
X2998277Y-9634460D01*
X2998277Y-9634460D02*
X2988753Y-9643984D01*
X2988753Y-9643984D02*
X2979229Y-9634460D01*
X2979229Y-9634460D02*
X2988753Y-9624936D01*
X2988753Y-9624936D02*
X2988753Y-9643984D01*
X3122086Y-9443984D02*
X3141134Y-9443984D01*
X3141134Y-9443984D02*
X3160182Y-9453508D01*
X3160182Y-9453508D02*
X3169705Y-9463031D01*
X3169705Y-9463031D02*
X3179229Y-9482079D01*
X3179229Y-9482079D02*
X3188753Y-9520174D01*
X3188753Y-9520174D02*
X3188753Y-9567793D01*
X3188753Y-9567793D02*
X3179229Y-9605889D01*
X3179229Y-9605889D02*
X3169705Y-9624936D01*
X3169705Y-9624936D02*
X3160182Y-9634460D01*
X3160182Y-9634460D02*
X3141134Y-9643984D01*
X3141134Y-9643984D02*
X3122086Y-9643984D01*
X3122086Y-9643984D02*
X3103039Y-9634460D01*
X3103039Y-9634460D02*
X3093515Y-9624936D01*
X3093515Y-9624936D02*
X3083991Y-9605889D01*
X3083991Y-9605889D02*
X3074467Y-9567793D01*
X3074467Y-9567793D02*
X3074467Y-9520174D01*
X3074467Y-9520174D02*
X3083991Y-9482079D01*
X3083991Y-9482079D02*
X3093515Y-9463031D01*
X3093515Y-9463031D02*
X3103039Y-9453508D01*
X3103039Y-9453508D02*
X3122086Y-9443984D01*
X3379229Y-9643984D02*
X3264943Y-9643984D01*
X3322086Y-9643984D02*
X3322086Y-9443984D01*
X3322086Y-9443984D02*
X3303039Y-9472555D01*
X3303039Y-9472555D02*
X3283991Y-9491603D01*
X3283991Y-9491603D02*
X3264943Y-9501127D01*
X3550658Y-9443984D02*
X3512562Y-9443984D01*
X3512562Y-9443984D02*
X3493515Y-9453508D01*
X3493515Y-9453508D02*
X3483991Y-9463031D01*
X3483991Y-9463031D02*
X3464943Y-9491603D01*
X3464943Y-9491603D02*
X3455420Y-9529698D01*
X3455420Y-9529698D02*
X3455420Y-9605889D01*
X3455420Y-9605889D02*
X3464943Y-9624936D01*
X3464943Y-9624936D02*
X3474467Y-9634460D01*
X3474467Y-9634460D02*
X3493515Y-9643984D01*
X3493515Y-9643984D02*
X3531610Y-9643984D01*
X3531610Y-9643984D02*
X3550658Y-9634460D01*
X3550658Y-9634460D02*
X3560182Y-9624936D01*
X3560182Y-9624936D02*
X3569705Y-9605889D01*
X3569705Y-9605889D02*
X3569705Y-9558270D01*
X3569705Y-9558270D02*
X3560182Y-9539222D01*
X3560182Y-9539222D02*
X3550658Y-9529698D01*
X3550658Y-9529698D02*
X3531610Y-9520174D01*
X3531610Y-9520174D02*
X3493515Y-9520174D01*
X3493515Y-9520174D02*
X3474467Y-9529698D01*
X3474467Y-9529698D02*
X3464943Y-9539222D01*
X3464943Y-9539222D02*
X3455420Y-9558270D01*
X3655420Y-9643984D02*
X3655420Y-9510650D01*
X3655420Y-9529698D02*
X3664943Y-9520174D01*
X3664943Y-9520174D02*
X3683991Y-9510650D01*
X3683991Y-9510650D02*
X3712563Y-9510650D01*
X3712563Y-9510650D02*
X3731610Y-9520174D01*
X3731610Y-9520174D02*
X3741134Y-9539222D01*
X3741134Y-9539222D02*
X3741134Y-9643984D01*
X3741134Y-9539222D02*
X3750658Y-9520174D01*
X3750658Y-9520174D02*
X3769705Y-9510650D01*
X3769705Y-9510650D02*
X3798277Y-9510650D01*
X3798277Y-9510650D02*
X3817324Y-9520174D01*
X3817324Y-9520174D02*
X3826848Y-9539222D01*
X3826848Y-9539222D02*
X3826848Y-9643984D01*
X3922086Y-9643984D02*
X3922086Y-9510650D01*
X3922086Y-9529698D02*
X3931610Y-9520174D01*
X3931610Y-9520174D02*
X3950658Y-9510650D01*
X3950658Y-9510650D02*
X3979229Y-9510650D01*
X3979229Y-9510650D02*
X3998277Y-9520174D01*
X3998277Y-9520174D02*
X4007801Y-9539222D01*
X4007801Y-9539222D02*
X4007801Y-9643984D01*
X4007801Y-9539222D02*
X4017324Y-9520174D01*
X4017324Y-9520174D02*
X4036372Y-9510650D01*
X4036372Y-9510650D02*
X4064943Y-9510650D01*
X4064943Y-9510650D02*
X4083991Y-9520174D01*
X4083991Y-9520174D02*
X4093515Y-9539222D01*
X4093515Y-9539222D02*
X4093515Y-9643984D01*
X4483991Y-9434460D02*
X4312563Y-9691603D01*
X4741134Y-9443984D02*
X4760182Y-9443984D01*
X4760182Y-9443984D02*
X4779229Y-9453508D01*
X4779229Y-9453508D02*
X4788753Y-9463031D01*
X4788753Y-9463031D02*
X4798277Y-9482079D01*
X4798277Y-9482079D02*
X4807801Y-9520174D01*
X4807801Y-9520174D02*
X4807801Y-9567793D01*
X4807801Y-9567793D02*
X4798277Y-9605889D01*
X4798277Y-9605889D02*
X4788753Y-9624936D01*
X4788753Y-9624936D02*
X4779229Y-9634460D01*
X4779229Y-9634460D02*
X4760182Y-9643984D01*
X4760182Y-9643984D02*
X4741134Y-9643984D01*
X4741134Y-9643984D02*
X4722087Y-9634460D01*
X4722087Y-9634460D02*
X4712563Y-9624936D01*
X4712563Y-9624936D02*
X4703039Y-9605889D01*
X4703039Y-9605889D02*
X4693515Y-9567793D01*
X4693515Y-9567793D02*
X4693515Y-9520174D01*
X4693515Y-9520174D02*
X4703039Y-9482079D01*
X4703039Y-9482079D02*
X4712563Y-9463031D01*
X4712563Y-9463031D02*
X4722087Y-9453508D01*
X4722087Y-9453508D02*
X4741134Y-9443984D01*
X4893515Y-9624936D02*
X4903039Y-9634460D01*
X4903039Y-9634460D02*
X4893515Y-9643984D01*
X4893515Y-9643984D02*
X4883991Y-9634460D01*
X4883991Y-9634460D02*
X4893515Y-9624936D01*
X4893515Y-9624936D02*
X4893515Y-9643984D01*
X5026848Y-9443984D02*
X5045896Y-9443984D01*
X5045896Y-9443984D02*
X5064944Y-9453508D01*
X5064944Y-9453508D02*
X5074468Y-9463031D01*
X5074468Y-9463031D02*
X5083991Y-9482079D01*
X5083991Y-9482079D02*
X5093515Y-9520174D01*
X5093515Y-9520174D02*
X5093515Y-9567793D01*
X5093515Y-9567793D02*
X5083991Y-9605889D01*
X5083991Y-9605889D02*
X5074468Y-9624936D01*
X5074468Y-9624936D02*
X5064944Y-9634460D01*
X5064944Y-9634460D02*
X5045896Y-9643984D01*
X5045896Y-9643984D02*
X5026848Y-9643984D01*
X5026848Y-9643984D02*
X5007801Y-9634460D01*
X5007801Y-9634460D02*
X4998277Y-9624936D01*
X4998277Y-9624936D02*
X4988753Y-9605889D01*
X4988753Y-9605889D02*
X4979229Y-9567793D01*
X4979229Y-9567793D02*
X4979229Y-9520174D01*
X4979229Y-9520174D02*
X4988753Y-9482079D01*
X4988753Y-9482079D02*
X4998277Y-9463031D01*
X4998277Y-9463031D02*
X5007801Y-9453508D01*
X5007801Y-9453508D02*
X5026848Y-9443984D01*
X5264944Y-9510650D02*
X5264944Y-9643984D01*
X5217325Y-9434460D02*
X5169706Y-9577317D01*
X5169706Y-9577317D02*
X5293515Y-9577317D01*
X5407801Y-9443984D02*
X5426849Y-9443984D01*
X5426849Y-9443984D02*
X5445896Y-9453508D01*
X5445896Y-9453508D02*
X5455420Y-9463031D01*
X5455420Y-9463031D02*
X5464944Y-9482079D01*
X5464944Y-9482079D02*
X5474468Y-9520174D01*
X5474468Y-9520174D02*
X5474468Y-9567793D01*
X5474468Y-9567793D02*
X5464944Y-9605889D01*
X5464944Y-9605889D02*
X5455420Y-9624936D01*
X5455420Y-9624936D02*
X5445896Y-9634460D01*
X5445896Y-9634460D02*
X5426849Y-9643984D01*
X5426849Y-9643984D02*
X5407801Y-9643984D01*
X5407801Y-9643984D02*
X5388753Y-9634460D01*
X5388753Y-9634460D02*
X5379229Y-9624936D01*
X5379229Y-9624936D02*
X5369706Y-9605889D01*
X5369706Y-9605889D02*
X5360182Y-9567793D01*
X5360182Y-9567793D02*
X5360182Y-9520174D01*
X5360182Y-9520174D02*
X5369706Y-9482079D01*
X5369706Y-9482079D02*
X5379229Y-9463031D01*
X5379229Y-9463031D02*
X5388753Y-9453508D01*
X5388753Y-9453508D02*
X5407801Y-9443984D01*
X5598277Y-9443984D02*
X5617325Y-9443984D01*
X5617325Y-9443984D02*
X5636372Y-9453508D01*
X5636372Y-9453508D02*
X5645896Y-9463031D01*
X5645896Y-9463031D02*
X5655420Y-9482079D01*
X5655420Y-9482079D02*
X5664944Y-9520174D01*
X5664944Y-9520174D02*
X5664944Y-9567793D01*
X5664944Y-9567793D02*
X5655420Y-9605889D01*
X5655420Y-9605889D02*
X5645896Y-9624936D01*
X5645896Y-9624936D02*
X5636372Y-9634460D01*
X5636372Y-9634460D02*
X5617325Y-9643984D01*
X5617325Y-9643984D02*
X5598277Y-9643984D01*
X5598277Y-9643984D02*
X5579229Y-9634460D01*
X5579229Y-9634460D02*
X5569706Y-9624936D01*
X5569706Y-9624936D02*
X5560182Y-9605889D01*
X5560182Y-9605889D02*
X5550658Y-9567793D01*
X5550658Y-9567793D02*
X5550658Y-9520174D01*
X5550658Y-9520174D02*
X5560182Y-9482079D01*
X5560182Y-9482079D02*
X5569706Y-9463031D01*
X5569706Y-9463031D02*
X5579229Y-9453508D01*
X5579229Y-9453508D02*
X5598277Y-9443984D01*
X5741134Y-9443984D02*
X5741134Y-9482079D01*
X5817325Y-9443984D02*
X5817325Y-9482079D01*
X6112563Y-9720174D02*
X6103039Y-9710650D01*
X6103039Y-9710650D02*
X6083991Y-9682079D01*
X6083991Y-9682079D02*
X6074468Y-9663031D01*
X6074468Y-9663031D02*
X6064944Y-9634460D01*
X6064944Y-9634460D02*
X6055420Y-9586841D01*
X6055420Y-9586841D02*
X6055420Y-9548746D01*
X6055420Y-9548746D02*
X6064944Y-9501127D01*
X6064944Y-9501127D02*
X6074468Y-9472555D01*
X6074468Y-9472555D02*
X6083991Y-9453508D01*
X6083991Y-9453508D02*
X6103039Y-9424936D01*
X6103039Y-9424936D02*
X6112563Y-9415412D01*
X6169706Y-9443984D02*
X6293515Y-9443984D01*
X6293515Y-9443984D02*
X6226848Y-9520174D01*
X6226848Y-9520174D02*
X6255420Y-9520174D01*
X6255420Y-9520174D02*
X6274468Y-9529698D01*
X6274468Y-9529698D02*
X6283991Y-9539222D01*
X6283991Y-9539222D02*
X6293515Y-9558270D01*
X6293515Y-9558270D02*
X6293515Y-9605889D01*
X6293515Y-9605889D02*
X6283991Y-9624936D01*
X6283991Y-9624936D02*
X6274468Y-9634460D01*
X6274468Y-9634460D02*
X6255420Y-9643984D01*
X6255420Y-9643984D02*
X6198277Y-9643984D01*
X6198277Y-9643984D02*
X6179229Y-9634460D01*
X6179229Y-9634460D02*
X6169706Y-9624936D01*
X6464944Y-9510650D02*
X6464944Y-9643984D01*
X6417325Y-9434460D02*
X6369706Y-9577317D01*
X6369706Y-9577317D02*
X6493515Y-9577317D01*
X6722087Y-9643984D02*
X6722087Y-9443984D01*
X6807801Y-9643984D02*
X6807801Y-9539222D01*
X6807801Y-9539222D02*
X6798277Y-9520174D01*
X6798277Y-9520174D02*
X6779230Y-9510650D01*
X6779230Y-9510650D02*
X6750658Y-9510650D01*
X6750658Y-9510650D02*
X6731610Y-9520174D01*
X6731610Y-9520174D02*
X6722087Y-9529698D01*
X6931610Y-9643984D02*
X6912563Y-9634460D01*
X6912563Y-9634460D02*
X6903039Y-9624936D01*
X6903039Y-9624936D02*
X6893515Y-9605889D01*
X6893515Y-9605889D02*
X6893515Y-9548746D01*
X6893515Y-9548746D02*
X6903039Y-9529698D01*
X6903039Y-9529698D02*
X6912563Y-9520174D01*
X6912563Y-9520174D02*
X6931610Y-9510650D01*
X6931610Y-9510650D02*
X6960182Y-9510650D01*
X6960182Y-9510650D02*
X6979230Y-9520174D01*
X6979230Y-9520174D02*
X6988753Y-9529698D01*
X6988753Y-9529698D02*
X6998277Y-9548746D01*
X6998277Y-9548746D02*
X6998277Y-9605889D01*
X6998277Y-9605889D02*
X6988753Y-9624936D01*
X6988753Y-9624936D02*
X6979230Y-9634460D01*
X6979230Y-9634460D02*
X6960182Y-9643984D01*
X6960182Y-9643984D02*
X6931610Y-9643984D01*
X7112563Y-9643984D02*
X7093515Y-9634460D01*
X7093515Y-9634460D02*
X7083991Y-9615412D01*
X7083991Y-9615412D02*
X7083991Y-9443984D01*
X7264944Y-9634460D02*
X7245896Y-9643984D01*
X7245896Y-9643984D02*
X7207801Y-9643984D01*
X7207801Y-9643984D02*
X7188753Y-9634460D01*
X7188753Y-9634460D02*
X7179230Y-9615412D01*
X7179230Y-9615412D02*
X7179230Y-9539222D01*
X7179230Y-9539222D02*
X7188753Y-9520174D01*
X7188753Y-9520174D02*
X7207801Y-9510650D01*
X7207801Y-9510650D02*
X7245896Y-9510650D01*
X7245896Y-9510650D02*
X7264944Y-9520174D01*
X7264944Y-9520174D02*
X7274468Y-9539222D01*
X7274468Y-9539222D02*
X7274468Y-9558270D01*
X7274468Y-9558270D02*
X7179230Y-9577317D01*
X7350658Y-9634460D02*
X7369706Y-9643984D01*
X7369706Y-9643984D02*
X7407801Y-9643984D01*
X7407801Y-9643984D02*
X7426849Y-9634460D01*
X7426849Y-9634460D02*
X7436372Y-9615412D01*
X7436372Y-9615412D02*
X7436372Y-9605889D01*
X7436372Y-9605889D02*
X7426849Y-9586841D01*
X7426849Y-9586841D02*
X7407801Y-9577317D01*
X7407801Y-9577317D02*
X7379230Y-9577317D01*
X7379230Y-9577317D02*
X7360182Y-9567793D01*
X7360182Y-9567793D02*
X7350658Y-9548746D01*
X7350658Y-9548746D02*
X7350658Y-9539222D01*
X7350658Y-9539222D02*
X7360182Y-9520174D01*
X7360182Y-9520174D02*
X7379230Y-9510650D01*
X7379230Y-9510650D02*
X7407801Y-9510650D01*
X7407801Y-9510650D02*
X7426849Y-9520174D01*
X7503039Y-9720174D02*
X7512563Y-9710650D01*
X7512563Y-9710650D02*
X7531611Y-9682079D01*
X7531611Y-9682079D02*
X7541134Y-9663031D01*
X7541134Y-9663031D02*
X7550658Y-9634460D01*
X7550658Y-9634460D02*
X7560182Y-9586841D01*
X7560182Y-9586841D02*
X7560182Y-9548746D01*
X7560182Y-9548746D02*
X7550658Y-9501127D01*
X7550658Y-9501127D02*
X7541134Y-9472555D01*
X7541134Y-9472555D02*
X7531611Y-9453508D01*
X7531611Y-9453508D02*
X7512563Y-9424936D01*
X7512563Y-9424936D02*
X7503039Y-9415412D01*
M02*
