%TF.GenerationSoftware,KiCad,Pcbnew,8.0.6*%
%TF.CreationDate,2024-11-20T22:47:01+01:00*%
%TF.ProjectId,Serverl_fter,53657276-6572-46cf-9c66-7465722e6b69,rev?*%
%TF.SameCoordinates,Original*%
%TF.FileFunction,Soldermask,Bot*%
%TF.FilePolarity,Negative*%
%FSLAX46Y46*%
G04 Gerber Fmt 4.6, Leading zero omitted, Abs format (unit mm)*
G04 Created by KiCad (PCBNEW 8.0.6) date 2024-11-20 22:47:01*
%MOMM*%
%LPD*%
G01*
G04 APERTURE LIST*
%ADD10R,1.700000X1.700000*%
%ADD11C,2.083600*%
%ADD12O,1.700000X1.700000*%
G04 APERTURE END LIST*
D10*
%TO.C,J9*%
X76200000Y-58420000D03*
%TD*%
D11*
%TO.C,U1*%
X35560000Y-29210000D03*
X35560000Y-31750000D03*
X35560000Y-34290000D03*
X35560000Y-36830000D03*
X35560000Y-39370000D03*
X35560000Y-41910000D03*
X49403000Y-30861000D03*
X46863000Y-30861000D03*
X59817000Y-30861000D03*
X57277000Y-30861000D03*
X38100000Y-27940000D03*
X40640000Y-27940000D03*
X43180000Y-27940000D03*
X45720000Y-27940000D03*
X48260000Y-27940000D03*
X50800000Y-27940000D03*
X53340000Y-27940000D03*
X55880000Y-27940000D03*
X58420000Y-27940000D03*
X60960000Y-27940000D03*
X63500000Y-27940000D03*
X66040000Y-27940000D03*
X66040000Y-43180000D03*
X63500000Y-43180000D03*
X60960000Y-43180000D03*
X58420000Y-43180000D03*
X55880000Y-43180000D03*
X53340000Y-43180000D03*
X50800000Y-43180000D03*
X48260000Y-43180000D03*
X45720000Y-43180000D03*
X43180000Y-43180000D03*
X40640000Y-43180000D03*
X38100000Y-43180000D03*
%TD*%
D10*
%TO.C,J3*%
X83820000Y-30480000D03*
D12*
X81280000Y-30480000D03*
X78740000Y-30480000D03*
X76200000Y-30480000D03*
X73660000Y-30480000D03*
X71120000Y-30480000D03*
%TD*%
D10*
%TO.C,J4*%
X35560000Y-50800000D03*
D12*
X38100000Y-50800000D03*
X40640000Y-50800000D03*
X43180000Y-50800000D03*
X45720000Y-50800000D03*
%TD*%
D10*
%TO.C,J6*%
X68580000Y-50800000D03*
D12*
X71120000Y-50800000D03*
X73660000Y-50800000D03*
%TD*%
D10*
%TO.C,J5*%
X53340000Y-50800000D03*
D12*
X55880000Y-50800000D03*
X58420000Y-50800000D03*
X60960000Y-50800000D03*
%TD*%
D10*
%TO.C,J11*%
X35560000Y-58420000D03*
%TD*%
%TO.C,J1*%
X91440000Y-76200000D03*
D12*
X93980000Y-76200000D03*
X96520000Y-76200000D03*
X99060000Y-76200000D03*
X101600000Y-76200000D03*
X104140000Y-76200000D03*
X106680000Y-76200000D03*
%TD*%
D10*
%TO.C,J2*%
X71120000Y-40640000D03*
D12*
X73660000Y-40640000D03*
X76200000Y-40640000D03*
X78740000Y-40640000D03*
X81280000Y-40640000D03*
X83820000Y-40640000D03*
%TD*%
D10*
%TO.C,J10*%
X35560000Y-76200000D03*
%TD*%
%TO.C,J8*%
X76200000Y-76200000D03*
%TD*%
%TO.C,J7*%
X99060000Y-27940000D03*
D12*
X101600000Y-27940000D03*
X104140000Y-27940000D03*
%TD*%
M02*
