%TF.GenerationSoftware,KiCad,Pcbnew,8.0.6*%
%TF.CreationDate,2024-11-20T22:47:01+01:00*%
%TF.ProjectId,Serverl_fter,53657276-6572-46cf-9c66-7465722e6b69,rev?*%
%TF.SameCoordinates,Original*%
%TF.FileFunction,Copper,L1,Top*%
%TF.FilePolarity,Positive*%
%FSLAX46Y46*%
G04 Gerber Fmt 4.6, Leading zero omitted, Abs format (unit mm)*
G04 Created by KiCad (PCBNEW 8.0.6) date 2024-11-20 22:47:01*
%MOMM*%
%LPD*%
G01*
G04 APERTURE LIST*
%TA.AperFunction,ComponentPad*%
%ADD10R,1.700000X1.700000*%
%TD*%
%TA.AperFunction,ComponentPad*%
%ADD11C,1.879600*%
%TD*%
%TA.AperFunction,ComponentPad*%
%ADD12O,1.700000X1.700000*%
%TD*%
%TA.AperFunction,ViaPad*%
%ADD13C,0.600000*%
%TD*%
%TA.AperFunction,Conductor*%
%ADD14C,0.200000*%
%TD*%
G04 APERTURE END LIST*
D10*
%TO.P,J9,1,Pin_1*%
%TO.N,Net-(J1-Pin_1)*%
X76200000Y-58420000D03*
%TD*%
D11*
%TO.P,U1,JP1_1,DTR*%
%TO.N,unconnected-(U1-DTR-PadJP1_1)*%
X35560000Y-29210000D03*
%TO.P,U1,JP1_2,TXO*%
%TO.N,unconnected-(U1-TXO-PadJP1_2)*%
X35560000Y-31750000D03*
%TO.P,U1,JP1_3,RXI*%
%TO.N,unconnected-(U1-RXI-PadJP1_3)*%
X35560000Y-34290000D03*
%TO.P,U1,JP1_4,VCC*%
%TO.N,unconnected-(U1-VCC-PadJP1_4)*%
X35560000Y-36830000D03*
%TO.P,U1,JP1_5,GND*%
%TO.N,Net-(J1-Pin_1)*%
X35560000Y-39370000D03*
%TO.P,U1,JP1_6,GND*%
X35560000Y-41910000D03*
%TO.P,U1,JP2_1,A4*%
%TO.N,Net-(J5-Pin_3)*%
X49403000Y-30861000D03*
%TO.P,U1,JP2_2,A5*%
%TO.N,Net-(J5-Pin_4)*%
X46863000Y-30861000D03*
%TO.P,U1,JP3_1,A6*%
%TO.N,unconnected-(U1-A6-PadJP3_1)*%
X59817000Y-30861000D03*
%TO.P,U1,JP3_2,A7*%
%TO.N,unconnected-(U1-A7-PadJP3_2)*%
X57277000Y-30861000D03*
%TO.P,U1,JP6_1,RAW*%
%TO.N,Net-(J10-Pin_1)*%
X38100000Y-27940000D03*
%TO.P,U1,JP6_2,GND_1*%
%TO.N,Net-(J1-Pin_1)*%
X40640000Y-27940000D03*
%TO.P,U1,JP6_3,RST_1*%
%TO.N,unconnected-(U1-RST_1-PadJP6_3)*%
X43180000Y-27940000D03*
%TO.P,U1,JP6_4,VCC_1*%
%TO.N,unconnected-(U1-VCC_1-PadJP6_4)*%
X45720000Y-27940000D03*
%TO.P,U1,JP6_5,A3*%
%TO.N,unconnected-(U1-A3-PadJP6_5)*%
X48260000Y-27940000D03*
%TO.P,U1,JP6_6,A2*%
%TO.N,unconnected-(U1-A2-PadJP6_6)*%
X50800000Y-27940000D03*
%TO.P,U1,JP6_7,A1*%
%TO.N,unconnected-(U1-A1-PadJP6_7)*%
X53340000Y-27940000D03*
%TO.P,U1,JP6_8,A0*%
%TO.N,unconnected-(U1-A0-PadJP6_8)*%
X55880000Y-27940000D03*
%TO.P,U1,JP6_9,SCK*%
%TO.N,unconnected-(U1-SCK-PadJP6_9)*%
X58420000Y-27940000D03*
%TO.P,U1,JP6_10,MISO*%
%TO.N,unconnected-(U1-MISO-PadJP6_10)*%
X60960000Y-27940000D03*
%TO.P,U1,JP6_11,MOSI*%
%TO.N,unconnected-(U1-MOSI-PadJP6_11)*%
X63500000Y-27940000D03*
%TO.P,U1,JP6_12,D10*%
%TO.N,unconnected-(U1-D10-PadJP6_12)*%
X66040000Y-27940000D03*
%TO.P,U1,JP7_1,D9*%
%TO.N,unconnected-(U1-D9-PadJP7_1)*%
X66040000Y-43180000D03*
%TO.P,U1,JP7_2,D8*%
%TO.N,Net-(J4-Pin_3)*%
X63500000Y-43180000D03*
%TO.P,U1,JP7_3,D7*%
%TO.N,Net-(J4-Pin_2)*%
X60960000Y-43180000D03*
%TO.P,U1,JP7_4,D6*%
%TO.N,Net-(J7-Pin_3)*%
X58420000Y-43180000D03*
%TO.P,U1,JP7_5,D5*%
%TO.N,Net-(J2-Pin_1)*%
X55880000Y-43180000D03*
%TO.P,U1,JP7_6,D4*%
%TO.N,Net-(J6-Pin_2)*%
X53340000Y-43180000D03*
%TO.P,U1,JP7_7,D3*%
%TO.N,unconnected-(U1-D3-PadJP7_7)*%
X50800000Y-43180000D03*
%TO.P,U1,JP7_8,D2*%
%TO.N,Net-(J4-Pin_1)*%
X48260000Y-43180000D03*
%TO.P,U1,JP7_9,GND_2*%
%TO.N,Net-(J1-Pin_1)*%
X45720000Y-43180000D03*
%TO.P,U1,JP7_10,RST_2*%
%TO.N,unconnected-(U1-RST_2-PadJP7_10)*%
X43180000Y-43180000D03*
%TO.P,U1,JP7_11,RXI_2*%
%TO.N,unconnected-(U1-RXI_2-PadJP7_11)*%
X40640000Y-43180000D03*
%TO.P,U1,JP7_12,TXO_2*%
%TO.N,unconnected-(U1-TXO_2-PadJP7_12)*%
X38100000Y-43180000D03*
%TD*%
D10*
%TO.P,J3,1,Pin_1*%
%TO.N,unconnected-(J3-Pin_1-Pad1)*%
X83820000Y-30480000D03*
D12*
%TO.P,J3,2,Pin_2*%
%TO.N,unconnected-(J3-Pin_2-Pad2)*%
X81280000Y-30480000D03*
%TO.P,J3,3,Pin_3*%
%TO.N,unconnected-(J3-Pin_3-Pad3)*%
X78740000Y-30480000D03*
%TO.P,J3,4,Pin_4*%
%TO.N,unconnected-(J3-Pin_4-Pad4)*%
X76200000Y-30480000D03*
%TO.P,J3,5,Pin_5*%
%TO.N,unconnected-(J3-Pin_5-Pad5)*%
X73660000Y-30480000D03*
%TO.P,J3,6,Pin_6*%
%TO.N,Net-(J1-Pin_6)*%
X71120000Y-30480000D03*
%TD*%
D10*
%TO.P,J4,1,Pin_1*%
%TO.N,Net-(J4-Pin_1)*%
X35560000Y-50800000D03*
D12*
%TO.P,J4,2,Pin_2*%
%TO.N,Net-(J4-Pin_2)*%
X38100000Y-50800000D03*
%TO.P,J4,3,Pin_3*%
%TO.N,Net-(J4-Pin_3)*%
X40640000Y-50800000D03*
%TO.P,J4,4,Pin_4*%
%TO.N,Net-(J1-Pin_1)*%
X43180000Y-50800000D03*
%TO.P,J4,5,Pin_5*%
X45720000Y-50800000D03*
%TD*%
D10*
%TO.P,J6,1,Pin_1*%
%TO.N,Net-(J1-Pin_1)*%
X68580000Y-50800000D03*
D12*
%TO.P,J6,2,Pin_2*%
%TO.N,Net-(J6-Pin_2)*%
X71120000Y-50800000D03*
%TO.P,J6,3,Pin_3*%
%TO.N,Net-(J1-Pin_1)*%
X73660000Y-50800000D03*
%TD*%
D10*
%TO.P,J5,1,Pin_1*%
%TO.N,Net-(J1-Pin_1)*%
X53340000Y-50800000D03*
D12*
%TO.P,J5,2,Pin_2*%
X55880000Y-50800000D03*
%TO.P,J5,3,Pin_3*%
%TO.N,Net-(J5-Pin_3)*%
X58420000Y-50800000D03*
%TO.P,J5,4,Pin_4*%
%TO.N,Net-(J5-Pin_4)*%
X60960000Y-50800000D03*
%TD*%
D10*
%TO.P,J11,1,Pin_1*%
%TO.N,Net-(J1-Pin_1)*%
X35560000Y-58420000D03*
%TD*%
%TO.P,J1,1,Pin_1*%
%TO.N,Net-(J1-Pin_1)*%
X91440000Y-76200000D03*
D12*
%TO.P,J1,2,Pin_2*%
%TO.N,Net-(J1-Pin_2)*%
X93980000Y-76200000D03*
%TO.P,J1,3,Pin_3*%
X96520000Y-76200000D03*
%TO.P,J1,4,Pin_4*%
%TO.N,Net-(J1-Pin_4)*%
X99060000Y-76200000D03*
%TO.P,J1,5,Pin_5*%
X101600000Y-76200000D03*
%TO.P,J1,6,Pin_6*%
%TO.N,Net-(J1-Pin_6)*%
X104140000Y-76200000D03*
%TO.P,J1,7,Pin_7*%
%TO.N,Net-(J1-Pin_1)*%
X106680000Y-76200000D03*
%TD*%
D10*
%TO.P,J2,1,Pin_1*%
%TO.N,Net-(J2-Pin_1)*%
X71120000Y-40640000D03*
D12*
%TO.P,J2,2,Pin_2*%
%TO.N,unconnected-(J2-Pin_2-Pad2)*%
X73660000Y-40640000D03*
%TO.P,J2,3,Pin_3*%
%TO.N,Net-(J10-Pin_1)*%
X76200000Y-40640000D03*
%TO.P,J2,4,Pin_4*%
%TO.N,Net-(J1-Pin_1)*%
X78740000Y-40640000D03*
%TO.P,J2,5,Pin_5*%
%TO.N,unconnected-(J2-Pin_5-Pad5)*%
X81280000Y-40640000D03*
%TO.P,J2,6,Pin_6*%
%TO.N,unconnected-(J2-Pin_6-Pad6)*%
X83820000Y-40640000D03*
%TD*%
D10*
%TO.P,J10,1,Pin_1*%
%TO.N,Net-(J10-Pin_1)*%
X35560000Y-76200000D03*
%TD*%
%TO.P,J8,1,Pin_1*%
%TO.N,Net-(J1-Pin_4)*%
X76200000Y-76200000D03*
%TD*%
%TO.P,J7,1,Pin_1*%
%TO.N,Net-(J1-Pin_1)*%
X99060000Y-27940000D03*
D12*
%TO.P,J7,2,Pin_2*%
%TO.N,Net-(J10-Pin_1)*%
X101600000Y-27940000D03*
%TO.P,J7,3,Pin_3*%
%TO.N,Net-(J7-Pin_3)*%
X104140000Y-27940000D03*
%TD*%
D13*
%TO.N,Net-(J10-Pin_1)*%
X77351700Y-26788300D03*
%TO.N,Net-(J1-Pin_1)*%
X79891700Y-27940000D03*
%TO.N,Net-(J1-Pin_6)*%
X72271700Y-78223600D03*
%TD*%
D14*
%TO.N,Net-(J7-Pin_3)*%
X104140000Y-27940000D02*
X102988300Y-27940000D01*
X63401900Y-38198100D02*
X58420000Y-43180000D01*
X93018100Y-38198100D02*
X63401900Y-38198100D01*
X102988300Y-28227900D02*
X93018100Y-38198100D01*
X102988300Y-27940000D02*
X102988300Y-28227900D01*
%TO.N,Net-(J4-Pin_2)*%
X38100000Y-50800000D02*
X39251700Y-50800000D01*
X58866000Y-45274000D02*
X60960000Y-43180000D01*
X44489800Y-45274000D02*
X58866000Y-45274000D01*
X39251700Y-50512100D02*
X44489800Y-45274000D01*
X39251700Y-50800000D02*
X39251700Y-50512100D01*
%TO.N,Net-(J4-Pin_3)*%
X40640000Y-50800000D02*
X41791700Y-50800000D01*
X41791700Y-50511900D02*
X41791700Y-50800000D01*
X42793500Y-49510100D02*
X41791700Y-50511900D01*
X57169900Y-49510100D02*
X42793500Y-49510100D01*
X63500000Y-43180000D02*
X57169900Y-49510100D01*
%TO.N,Net-(J4-Pin_1)*%
X46651600Y-44788400D02*
X48260000Y-43180000D01*
X42435400Y-44788400D02*
X46651600Y-44788400D01*
X36711700Y-50512100D02*
X42435400Y-44788400D01*
X36711700Y-50800000D02*
X36711700Y-50512100D01*
X35560000Y-50800000D02*
X36711700Y-50800000D01*
%TO.N,Net-(J2-Pin_1)*%
X61636200Y-40640000D02*
X71120000Y-40640000D01*
X59718500Y-42557700D02*
X61636200Y-40640000D01*
X59718500Y-43671100D02*
X59718500Y-42557700D01*
X58956700Y-44432900D02*
X59718500Y-43671100D01*
X57132900Y-44432900D02*
X58956700Y-44432900D01*
X55880000Y-43180000D02*
X57132900Y-44432900D01*
%TO.N,Net-(J10-Pin_1)*%
X101600000Y-27940000D02*
X100448300Y-27940000D01*
X100088400Y-26788300D02*
X77351700Y-26788300D01*
X100448300Y-27148200D02*
X100088400Y-26788300D01*
X100448300Y-27940000D02*
X100448300Y-27148200D01*
X77208100Y-26644700D02*
X77351700Y-26788300D01*
X39395300Y-26644700D02*
X77208100Y-26644700D01*
X38100000Y-27940000D02*
X39395300Y-26644700D01*
%TO.N,Net-(J1-Pin_2)*%
X96520000Y-76200000D02*
X93980000Y-76200000D01*
%TO.N,Net-(J1-Pin_1)*%
X105528300Y-75931500D02*
X105528300Y-76200000D01*
X104631500Y-75034700D02*
X105528300Y-75931500D01*
X93469100Y-75034700D02*
X104631500Y-75034700D01*
X92591700Y-75912100D02*
X93469100Y-75034700D01*
X92591700Y-76200000D02*
X92591700Y-75912100D01*
X91440000Y-76200000D02*
X92591700Y-76200000D01*
X106680000Y-76200000D02*
X105528300Y-76200000D01*
X55880000Y-50800000D02*
X53340000Y-50800000D01*
X53340000Y-50800000D02*
X45720000Y-50800000D01*
X45720000Y-50800000D02*
X43180000Y-50800000D01*
X44450000Y-41910000D02*
X35560000Y-41910000D01*
X45720000Y-43180000D02*
X44450000Y-41910000D01*
X66276600Y-49648300D02*
X67428300Y-50800000D01*
X57933700Y-49648300D02*
X66276600Y-49648300D01*
X57031700Y-50550300D02*
X57933700Y-49648300D01*
X57031700Y-50800000D02*
X57031700Y-50550300D01*
X55880000Y-50800000D02*
X57031700Y-50800000D01*
X68580000Y-50800000D02*
X67428300Y-50800000D01*
X68610400Y-49617900D02*
X67428300Y-50800000D01*
X71614100Y-49617900D02*
X68610400Y-49617900D01*
X72508300Y-50512100D02*
X71614100Y-49617900D01*
X72508300Y-50800000D02*
X72508300Y-50512100D01*
X73660000Y-50800000D02*
X72508300Y-50800000D01*
X99060000Y-27940000D02*
X79891700Y-27940000D01*
%TO.N,Net-(J1-Pin_6)*%
X104140000Y-76200000D02*
X102988300Y-76200000D01*
X101252600Y-78223600D02*
X72271700Y-78223600D01*
X102988300Y-76487900D02*
X101252600Y-78223600D01*
X102988300Y-76200000D02*
X102988300Y-76487900D01*
%TO.N,Net-(J1-Pin_4)*%
X76200000Y-76200000D02*
X77351700Y-76200000D01*
X101600000Y-76200000D02*
X99060000Y-76200000D01*
X99060000Y-76200000D02*
X97908300Y-76200000D01*
X78540800Y-77389100D02*
X77351700Y-76200000D01*
X97007100Y-77389100D02*
X78540800Y-77389100D01*
X97908300Y-76487900D02*
X97007100Y-77389100D01*
X97908300Y-76200000D02*
X97908300Y-76487900D01*
%TD*%
M02*
