M48
; DRILL file {KiCad 8.0.6} date 2024-11-20T22:46:50+0100
; FORMAT={-:-/ absolute / inch / decimal}
; #@! TF.CreationDate,2024-11-20T22:46:50+01:00
; #@! TF.GenerationSoftware,Kicad,Pcbnew,8.0.6
; #@! TF.FileFunction,Plated,1,2,PTH
FMAT,2
INCH
; #@! TA.AperFunction,Plated,PTH,ViaDrill
T1C0.0118
; #@! TA.AperFunction,Plated,PTH,ComponentDrill
T2C0.0394
; #@! TA.AperFunction,Plated,PTH,ComponentDrill
T3C0.0400
%
G90
G05
T1
X2.8453Y-3.0797
X3.0453Y-1.0547
X3.1453Y-1.1
T2
X1.4Y-2.0
X1.4Y-2.3
X1.4Y-3.0
X1.5Y-2.0
X1.6Y-2.0
X1.7Y-2.0
X1.8Y-2.0
X2.1Y-2.0
X2.2Y-2.0
X2.3Y-2.0
X2.4Y-2.0
X2.7Y-2.0
X2.8Y-1.2
X2.8Y-1.6
X2.8Y-2.0
X2.9Y-1.2
X2.9Y-1.6
X2.9Y-2.0
X3.0Y-1.2
X3.0Y-1.6
X3.0Y-2.3
X3.0Y-3.0
X3.1Y-1.2
X3.1Y-1.6
X3.2Y-1.2
X3.2Y-1.6
X3.3Y-1.2
X3.3Y-1.6
X3.6Y-3.0
X3.7Y-3.0
X3.8Y-3.0
X3.9Y-1.1
X3.9Y-3.0
X4.0Y-1.1
X4.0Y-3.0
X4.1Y-1.1
X4.1Y-3.0
X4.2Y-3.0
T3
X1.4Y-1.15
X1.4Y-1.25
X1.4Y-1.35
X1.4Y-1.45
X1.4Y-1.55
X1.4Y-1.65
X1.5Y-1.1
X1.5Y-1.7
X1.6Y-1.1
X1.6Y-1.7
X1.7Y-1.1
X1.7Y-1.7
X1.8Y-1.1
X1.8Y-1.7
X1.845Y-1.215
X1.9Y-1.1
X1.9Y-1.7
X1.945Y-1.215
X2.0Y-1.1
X2.0Y-1.7
X2.1Y-1.1
X2.1Y-1.7
X2.2Y-1.1
X2.2Y-1.7
X2.255Y-1.215
X2.3Y-1.1
X2.3Y-1.7
X2.355Y-1.215
X2.4Y-1.1
X2.4Y-1.7
X2.5Y-1.1
X2.5Y-1.7
X2.6Y-1.1
X2.6Y-1.7
M30
